<?xml version="1.0" encoding="UTF-8" standalone="no"?>
<svg
   xmlns:dc="http://purl.org/dc/elements/1.1/"
   xmlns:cc="http://creativecommons.org/ns#"
   xmlns:rdf="http://www.w3.org/1999/02/22-rdf-syntax-ns#"
   xmlns:svg="http://www.w3.org/2000/svg"
   xmlns="http://www.w3.org/2000/svg"
   version="1.1"
   id="svg2"
   viewBox="0 0 1920 1080"
   height="1080"
   width="1920">
  <defs
     id="defs4" />
  <metadata
     id="metadata7">
    <rdf:RDF>
      <cc:Work
         rdf:about="">
        <dc:format>image/svg+xml</dc:format>
        <dc:type
           rdf:resource="http://purl.org/dc/dcmitype/StillImage" />
        <dc:title></dc:title>
      </cc:Work>
    </rdf:RDF>
  </metadata>
  <g
     style="display:inline"
     id="layer16">
    <path
       id="path4304"
       d="m -6,702 0.5,260.5 160.5,158 262,7.5 z"
       style="fill:#7f7472;fill-opacity:1;fill-rule:evenodd;stroke:none;stroke-width:1px;stroke-linecap:butt;stroke-linejoin:miter;stroke-opacity:1" />
  </g>
  <g
     style="display:inline"
     id="layer17">
    <path
       id="path4307"
       d="m -19,291 865,-315.000002 -892,-51 z"
       style="fill:#c0e6b3;fill-opacity:1;fill-rule:evenodd;stroke:none;stroke-width:1px;stroke-linecap:butt;stroke-linejoin:miter;stroke-opacity:1" />
    <path
       id="path4396"
       d="m -14,956 0.5,144 142.5,-4 z"
       style="fill:#83868d;fill-rule:evenodd;stroke:none;stroke-width:1px;stroke-linecap:butt;stroke-linejoin:miter;stroke-opacity:1;fill-opacity:1" />
  </g>
  <g
     id="layer18">
    <path
       d="m 102.10863,184.5906 c 0.0554,-1.0554 -0.042,-2.11874 0.0644,-3.17178 0.0301,-0.29823 0.0833,-0.59368 0.12495,-0.89051 0.40455,-2.05078 1.37269,-3.9184 2.41712,-5.70769 0,0 1.52936,-0.6787 1.52936,-0.6787 l 0,0 c -1.06325,1.76194 -2.04473,3.60943 -2.44622,5.64774 -0.0396,0.29069 -0.0898,0.58012 -0.11867,0.87206 -0.10311,1.04223 -0.0133,2.09418 -0.0202,3.1387 0,0 -1.55081,0.79018 -1.55081,0.79018 z"
       id="path4352"
       style="fill:#70895f;fill-opacity:1;stroke:none;stroke-width:3;stroke-miterlimit:4;stroke-dasharray:none;stroke-opacity:1" />
    <path
       d="m 108.96704,185.1564 c -0.0716,-0.63647 -0.18143,-1.2739 -0.20392,-1.91512 -0.0168,-0.47925 0.0153,-0.65126 0.0601,-1.13605 0.11583,-0.731 0.0532,-0.37645 0.18583,-1.06401 0,0 1.54146,-0.74723 1.54146,-0.74723 l 0,0 c -0.14297,0.68163 -0.0754,0.3312 -0.20106,1.05163 -0.0409,0.422 -0.0806,0.68594 -0.0684,1.10652 0.0184,0.63189 0.12839,1.26225 0.22392,1.88544 0,0 -1.53799,0.81882 -1.53799,0.81882 z"
       id="path4354"
       style="fill:#70895f;fill-opacity:1;stroke:none;stroke-width:3;stroke-miterlimit:4;stroke-dasharray:none;stroke-opacity:1" />
    <path
       d="m 92.01267,188.73001 c -0.133938,-0.91191 -0.467281,-1.80383 -0.938769,-2.59642 -0.111067,-0.1867 -0.243476,-0.35986 -0.365215,-0.53979 -0.471377,-0.6288 -1.091041,-1.08625 -1.758516,-1.48261 0,0 1.442351,-0.93093 1.442351,-0.93093 l 0,0 c 0.670931,0.4273 1.296452,0.91258 1.779552,1.55482 0.12516,0.18548 0.261007,0.36418 0.375481,0.55643 0.481336,0.8084 0.817466,1.7104 1.013015,2.62811 0,0 -1.547899,0.81039 -1.547899,0.81039 z"
       id="path4356"
       style="fill:#70895f;fill-opacity:1;stroke:none;stroke-width:3;stroke-miterlimit:4;stroke-dasharray:none;stroke-opacity:1" />
    <path
       d="m 32.2788,167.50825 c -0.04587,-1.01557 0.409914,-1.93391 0.794779,-2.84581 0.07921,-0.1757 0.158417,-0.35139 0.237625,-0.52709 0,0 1.551593,-0.70827 1.551593,-0.70827 l 0,0 c -0.08171,0.17508 -0.163415,0.35016 -0.245122,0.52524 -0.377025,0.88096 -0.844541,1.77741 -0.781991,2.76265 0,0 -1.556884,0.79328 -1.556884,0.79328 z"
       id="path4358"
       style="fill:#70895f;fill-opacity:1;stroke:none;stroke-width:3;stroke-miterlimit:4;stroke-dasharray:none;stroke-opacity:1" />
    <path
       d="m 27.279892,167.91086 c -0.267422,-0.74422 -0.537061,-1.48999 -0.961144,-2.16078 -0.272665,-0.29615 -0.127443,-0.16177 -0.433875,-0.40506 0,0 1.4709,-0.921 1.4709,-0.921 l 0,0 c 0.323474,0.27556 0.169066,0.12475 0.460903,0.4548 0.419096,0.68665 0.676008,1.44586 0.991548,2.18293 0,0 -1.528332,0.84911 -1.528332,0.84911 z"
       id="path4360"
       style="fill:#70895f;fill-opacity:1;stroke:none;stroke-width:3;stroke-miterlimit:4;stroke-dasharray:none;stroke-opacity:1" />
    <path
       d="m 20.990707,169.006 c -0.763457,-0.71815 -1.545672,-1.41899 -2.42056,-1.9989 -0.315733,-0.20631 -0.660715,-0.34731 -1.013187,-0.47431 0,0 1.438897,-0.96688 1.438897,-0.96688 l 0,0 c 0.353937,0.14419 0.700936,0.30105 1.018112,0.5181 0.871497,0.60132 1.653797,1.31413 2.455325,2.00392 0,0 -1.478587,0.91807 -1.478587,0.91807 z"
       id="path4362"
       style="fill:#70895f;fill-opacity:1;stroke:none;stroke-width:3;stroke-miterlimit:4;stroke-dasharray:none;stroke-opacity:1" />
    <path
       d="m 4.1853422,172.40994 c -2.1623348,-1.88814 -4.56860788,-3.4833 -7.0208734,-4.96725 -1.0247966,-0.60177 -2.0879267,-1.14053 -3.2457042,-1.42452 0,0 2.0233211,-1.38946 2.0233211,-1.38946 l 0,0 c 1.1431907,0.34135 2.1921368,0.90892 3.20415365,1.53538 2.44700045,1.54301 4.83539655,3.18552 7.13014095,4.9475 0,0 -2.0910381,1.29835 -2.0910381,1.29835 z"
       id="path4364"
       style="fill:#70895f;fill-opacity:1;stroke:none;stroke-width:3;stroke-miterlimit:4;stroke-dasharray:none;stroke-opacity:1" />
    <path
       d="m 320.43193,129.80571 c -0.54873,-1.59638 -1.46238,-3.03372 -2.36401,-4.44988 -0.13276,-0.21173 -0.26553,-0.42347 -0.3983,-0.6352 0,0 2.98742,-1.73603 2.98742,-1.73603 l 0,0 c 0.12866,0.21295 0.25732,0.4259 0.38598,0.63885 0.89586,1.4471 1.81767,2.89563 2.44558,4.48404 0,0 -3.05667,1.69822 -3.05667,1.69822 z"
       id="path4366"
       style="fill:#70895f;fill-opacity:1;stroke:none;stroke-width:3;stroke-miterlimit:4;stroke-dasharray:none;stroke-opacity:1" />
    <path
       d="m 332.74968,124.28515 c -1.15336,-1.30878 -3.00165,-1.46324 -4.6059,-1.80842 -1.90196,-0.35428 -0.96458,-0.19035 -2.81179,-0.49379 0,0 2.77342,-1.94505 2.77342,-1.94505 l 0,0 c 1.84439,0.31915 0.90547,0.15066 2.81653,0.50684 1.71756,0.35095 3.59532,0.55057 4.82849,1.93878 0,0 -3.00075,1.80164 -3.00075,1.80164 z"
       id="path4368"
       style="fill:#70895f;fill-opacity:1;stroke:none;stroke-width:3;stroke-miterlimit:4;stroke-dasharray:none;stroke-opacity:1" />
    <path
       d="m 343.83059,115.98158 c -0.063,-0.59348 -0.11083,-1.1884 -0.15968,-1.78316 0,0 3.07557,-1.59907 3.07557,-1.59907 l 0,0 c 0.0485,0.58616 0.0941,1.1731 0.18168,1.75511 0,0 -3.09757,1.62712 -3.09757,1.62712 z"
       id="path4370"
       style="fill:#70895f;fill-opacity:1;stroke:none;stroke-width:3;stroke-miterlimit:4;stroke-dasharray:none;stroke-opacity:1" />
    <path
       d="m 444.17436,128.34251 c -0.83707,-1.8497 -1.74934,-3.66232 -2.71969,-5.44524 -0.17273,-0.31339 -0.34546,-0.62678 -0.51819,-0.94017 0,0 2.96585,-1.70333 2.96585,-1.70333 l 0,0 c 0.17112,0.31484 0.34225,0.62969 0.51337,0.94453 0.97331,1.80269 1.88425,3.63612 2.81784,5.45938 0,0 -3.05918,1.68483 -3.05918,1.68483 z"
       id="path4372"
       style="fill:#70895f;fill-opacity:1;stroke:none;stroke-width:3;stroke-miterlimit:4;stroke-dasharray:none;stroke-opacity:1" />
    <path
       d="m 422.87304,133.49031 c -1.15614,-1.27954 -2.62822,-2.21104 -4.07468,-3.1258 -0.99038,-0.54705 -1.9191,-1.19836 -2.99172,-1.57458 0,0 2.88824,-1.94234 2.88824,-1.94234 l 0,0 c 1.06127,0.43259 1.99593,1.09227 2.98577,1.66302 1.46871,0.94307 2.95369,1.88947 4.17407,3.15252 0,0 -2.98168,1.82718 -2.98168,1.82718 z"
       id="path4374"
       style="fill:#70895f;fill-opacity:1;stroke:none;stroke-width:3;stroke-miterlimit:4;stroke-dasharray:none;stroke-opacity:1" />
    <path
       d="m 647.70367,33.546285 c -0.70321,-1.242099 -1.55544,-2.258212 -2.63537,-3.182697 -0.7287,-0.489626 -1.49727,-0.924329 -2.27734,-1.328146 0,0 2.06205,-1.348547 2.06205,-1.348547 l 0,0 c 0.7795,0.430877 1.56686,0.858584 2.28249,1.39039 1.05633,0.937571 1.93655,2.017461 2.68237,3.218529 0,0 -2.1142,1.250471 -2.1142,1.250471 z"
       id="path4376"
       style="fill:#70895f;fill-opacity:1;stroke:none;stroke-width:3;stroke-miterlimit:4;stroke-dasharray:none;stroke-opacity:1" />
    <path
       d="m 644.48842,39.435485 c -0.88352,-1.073297 -1.81958,-2.113584 -2.85123,-3.046723 -0.70908,-0.574684 -1.32815,-1.247595 -2.02432,-1.837277 0,0 2.08274,-1.296698 2.08274,-1.296698 l 0,0 c 0.6815,0.605076 1.30169,1.275763 2.00462,1.857042 1.02657,0.948896 1.9454,2.007219 2.89269,3.034019 0,0 -2.1045,1.289637 -2.1045,1.289637 z"
       id="path4378"
       style="fill:#70895f;fill-opacity:1;stroke:none;stroke-width:3;stroke-miterlimit:4;stroke-dasharray:none;stroke-opacity:1" />
    <path
       d="m 628.57959,43.361173 c -0.28696,-1.114569 -0.53726,-2.238707 -0.7236,-3.374547 -0.13968,-0.864903 -0.22237,-1.716982 -0.0342,-2.576688 0.27765,-0.851532 0.73054,-1.337767 1.46828,-1.817693 0.82504,-0.468215 1.65009,-0.93643 2.47514,-1.404646 0,0 -1.91484,1.535989 -1.91484,1.535989 l 0,0 c 0.57559,-0.339194 1.15119,-0.678388 1.72678,-1.017581 -0.12534,0.07402 -0.60977,0.352971 -0.7277,0.450268 -0.37058,0.305723 -0.60377,0.762936 -0.80579,1.186683 -0.0469,0.179117 -0.12839,0.46667 -0.15,0.649103 -0.073,0.616601 0.0704,1.241071 0.11792,1.853082 0.17213,1.119076 0.40656,2.229423 0.72939,3.315209 0,0 -2.16139,1.200821 -2.16139,1.200821 z"
       id="path4380"
       style="fill:#70895f;fill-opacity:1;stroke:none;stroke-width:3;stroke-miterlimit:4;stroke-dasharray:none;stroke-opacity:1" />
    <path
       d="m 311.38791,51.163773 c -1.2593,-3.028872 -2.07151,-6.211204 -3.07381,-9.326991 0,0 3.01789,-1.656377 3.01789,-1.656377 l 0,0 c 0.97409,3.112853 1.75335,6.299802 3.10006,9.283441 0,0 -3.04414,1.699927 -3.04414,1.699927 z"
       id="path4390"
       style="fill:#70895f;fill-opacity:1;stroke:none;stroke-width:3;stroke-miterlimit:4;stroke-dasharray:none;stroke-opacity:1" />
    <path
       d="m 299.91871,52.509443 c -0.88533,-1.643516 -2.00294,-3.144796 -3.06154,-4.677512 0,0 2.95746,-1.739368 2.95746,-1.739368 l 0,0 c 1.06501,1.544423 2.1832,3.057353 3.12087,4.684876 0,0 -3.01679,1.732004 -3.01679,1.732004 z"
       id="path4392"
       style="fill:#70895f;fill-opacity:1;stroke:none;stroke-width:3;stroke-miterlimit:4;stroke-dasharray:none;stroke-opacity:1" />
    <path
       d="m 319.76691,49.158517 c 1.36293,-2.200397 3.24352,-3.996739 5.38381,-5.42373 0,0 3.22558,-1.255594 3.22558,-1.255594 l 0,0 c -2.16232,1.334983 -4.05228,3.090948 -5.4136,5.254762 0,0 -3.19579,1.424562 -3.19579,1.424562 z"
       id="path4394"
       style="fill:#70895f;fill-opacity:1;stroke:none;stroke-width:3;stroke-miterlimit:4;stroke-dasharray:none;stroke-opacity:1" />
  </g>
  <g
     style="display:inline"
     id="layer15">
    <path
       id="path4281"
       d="m -17,951 172,170"
       style="fill:none;fill-rule:evenodd;stroke:#000000;stroke-width:5;stroke-linecap:butt;stroke-linejoin:miter;stroke-miterlimit:4;stroke-dasharray:none;stroke-opacity:1" />
    <path
       id="path4283"
       d="m -13,841 270,270.5"
       style="fill:none;fill-rule:evenodd;stroke:#000000;stroke-width:5;stroke-linecap:butt;stroke-linejoin:miter;stroke-miterlimit:4;stroke-dasharray:none;stroke-opacity:1" />
    <path
       id="path4285"
       d="m -8,789 323,281"
       style="fill:none;fill-rule:evenodd;stroke:#6a605e;stroke-width:2;stroke-linecap:butt;stroke-linejoin:miter;stroke-miterlimit:4;stroke-dasharray:none;stroke-opacity:1" />
    <path
       id="path4287"
       d="m 109,866 179.5,157"
       style="fill:none;fill-rule:evenodd;stroke:#6a605e;stroke-width:2;stroke-linecap:butt;stroke-linejoin:miter;stroke-miterlimit:4;stroke-dasharray:none;stroke-opacity:1" />
    <path
       id="path4289"
       d="M 89.5,890 -10,794.5"
       style="fill:none;fill-rule:evenodd;stroke:#6a605e;stroke-width:1px;stroke-linecap:butt;stroke-linejoin:miter;stroke-opacity:1" />
    <path
       id="path4291"
       d="m 81,896 69,69"
       style="fill:none;fill-rule:evenodd;stroke:#6a605e;stroke-width:3;stroke-linecap:butt;stroke-linejoin:miter;stroke-miterlimit:4;stroke-dasharray:none;stroke-opacity:1" />
    <path
       id="path4293"
       d="m 263,1059.5 41,38.5"
       style="fill:none;fill-rule:evenodd;stroke:#6a605e;stroke-width:3;stroke-linecap:butt;stroke-linejoin:miter;stroke-miterlimit:4;stroke-dasharray:none;stroke-opacity:1" />
    <path
       id="path4295"
       d="m 96,931.5 70.5,68.5"
       style="fill:none;fill-rule:evenodd;stroke:#6a605e;stroke-width:1px;stroke-linecap:butt;stroke-linejoin:miter;stroke-opacity:1" />
    <path
       id="path4297"
       d="M 86.5,950 210,1114"
       style="fill:none;fill-rule:evenodd;stroke:#6a605e;stroke-width:2;stroke-linecap:butt;stroke-linejoin:miter;stroke-miterlimit:4;stroke-dasharray:none;stroke-opacity:1" />
    <path
       id="path4299"
       d="m -15.5,870.5 c 53.929406,87.65648 127.03915,159.9687 193,238"
       style="fill:none;fill-rule:evenodd;stroke:#6a605e;stroke-width:3;stroke-linecap:butt;stroke-linejoin:miter;stroke-miterlimit:4;stroke-dasharray:none;stroke-opacity:1" />
    <path
       id="path4301"
       d="M -33.5,884 C 12.558195,938.82937 61.354575,989.55147 110,1040.5"
       style="fill:none;fill-rule:evenodd;stroke:#6a605e;stroke-width:2;stroke-linecap:butt;stroke-linejoin:miter;stroke-miterlimit:4;stroke-dasharray:none;stroke-opacity:1" />
  </g>
  <g
     style="display:inline"
     id="layer13">
    <rect
       transform="matrix(0.7035576,0.71063824,-0.93992695,0.34137563,0,0)"
       y="-1870.7253"
       x="294.91501"
       height="2418.9255"
       width="1748.178"
       id="rect4209"
       style="fill:#b5a08d;fill-opacity:1;stroke:#000000;stroke-width:6.93451166;stroke-miterlimit:4;stroke-dasharray:none;stroke-opacity:1" />
  </g>
  <g
     style="display:inline"
     id="layer14">
    <path
       id="path4212"
       d="M -31.112698,693.9197 C 79.041862,636.40835 210.15651,578.89699 346.48232,521.38564"
       style="fill:none;fill-rule:evenodd;stroke:#8d7c6c;stroke-width:2;stroke-linecap:butt;stroke-linejoin:miter;stroke-miterlimit:4;stroke-dasharray:none;stroke-opacity:1" />
    <path
       id="path4214"
       d="M 182,617 C 251.20678,582.18004 318.3979,546.68819 403,517"
       style="fill:none;fill-rule:evenodd;stroke:#8d7c6c;stroke-width:2;stroke-linecap:butt;stroke-linejoin:miter;stroke-miterlimit:4;stroke-dasharray:none;stroke-opacity:1" />
    <path
       id="path4216"
       d="M 321,580 C 399,538.45664 477,509.44505 555,475"
       style="fill:none;fill-rule:evenodd;stroke:#8d7c6c;stroke-width:2;stroke-linecap:butt;stroke-linejoin:miter;stroke-miterlimit:4;stroke-dasharray:none;stroke-opacity:1" />
    <path
       id="path4218"
       d="M 312,270 C 419.10356,219.28804 527.23303,174.73154 637,140"
       style="fill:none;fill-rule:evenodd;stroke:#8d7c6c;stroke-width:3;stroke-linecap:butt;stroke-linejoin:miter;stroke-miterlimit:4;stroke-dasharray:none;stroke-opacity:1" />
    <path
       id="path4220"
       d="m 528,163 c 38.75402,-17.82529 79.6008,-31.46506 121,-44"
       style="fill:none;fill-rule:evenodd;stroke:#8d7c6c;stroke-width:1px;stroke-linecap:butt;stroke-linejoin:miter;stroke-opacity:1" />
    <path
       id="path4222"
       d="M 623,118 682,96.999998"
       style="fill:none;fill-rule:evenodd;stroke:#8d7c6c;stroke-width:2;stroke-linecap:butt;stroke-linejoin:miter;stroke-miterlimit:4;stroke-dasharray:none;stroke-opacity:1" />
    <path
       id="path4224"
       d="m 14,363 -75,32"
       style="fill:none;fill-rule:evenodd;stroke:#8d7c6c;stroke-width:1px;stroke-linecap:butt;stroke-linejoin:miter;stroke-opacity:1" />
    <path
       id="path4226"
       d="M 33,362 7,372"
       style="fill:none;fill-rule:evenodd;stroke:#8d7c6c;stroke-width:2;stroke-linecap:butt;stroke-linejoin:miter;stroke-miterlimit:4;stroke-dasharray:none;stroke-opacity:1" />
    <path
       id="path4228"
       d="m 372,397 -33,17"
       style="fill:none;fill-rule:evenodd;stroke:#8d7c6c;stroke-width:2;stroke-linecap:butt;stroke-linejoin:miter;stroke-miterlimit:4;stroke-dasharray:none;stroke-opacity:1" />
    <path
       id="path4230"
       d="m 370,407 -11,6"
       style="fill:none;fill-rule:evenodd;stroke:#8d7c6c;stroke-width:1px;stroke-linecap:butt;stroke-linejoin:miter;stroke-opacity:1" />
    <path
       id="path4232"
       d="M 1024,65.999998 C 1183.6667,0.5216299 1343.3333,-52.602539 1503,-105"
       style="fill:none;fill-rule:evenodd;stroke:#8d7c6c;stroke-width:3;stroke-linecap:butt;stroke-linejoin:miter;stroke-miterlimit:4;stroke-dasharray:none;stroke-opacity:1" />
    <path
       id="path4234"
       d="m 1418,225 c 44.1221,-20.66667 89.7352,-41.33333 147,-62"
       style="fill:none;fill-rule:evenodd;stroke:#8d7c6c;stroke-width:2;stroke-linecap:butt;stroke-linejoin:miter;stroke-miterlimit:4;stroke-dasharray:none;stroke-opacity:1" />
    <path
       id="path4236"
       d="M 1633,185 C 1753.1208,124.08937 1877.5998,78.432543 2003,35.999998"
       style="fill:none;fill-rule:evenodd;stroke:#8d7c6c;stroke-width:3;stroke-linecap:butt;stroke-linejoin:miter;stroke-miterlimit:4;stroke-dasharray:none;stroke-opacity:1" />
    <path
       id="path4238"
       d="M 1452,293 C 1636.5119,205.51647 1839.8272,123.81862 2059,46.999998"
       style="fill:none;fill-rule:evenodd;stroke:#8d7c6c;stroke-width:2;stroke-linecap:butt;stroke-linejoin:miter;stroke-miterlimit:4;stroke-dasharray:none;stroke-opacity:1" />
    <path
       id="path4240"
       d="m 1810,235 30,-12"
       style="fill:none;fill-rule:evenodd;stroke:#8d7c6c;stroke-width:1px;stroke-linecap:butt;stroke-linejoin:miter;stroke-opacity:1" />
    <path
       id="path4242"
       d="m 1833,236 c 22.024,-11.7938 23.939,-10.18157 31,-12"
       style="fill:none;fill-rule:evenodd;stroke:#8d7c6c;stroke-width:2;stroke-linecap:butt;stroke-linejoin:miter;stroke-miterlimit:4;stroke-dasharray:none;stroke-opacity:1" />
    <path
       id="path4244"
       d="m 1865,237 18,-6"
       style="fill:none;fill-rule:evenodd;stroke:#8d7c6c;stroke-width:2;stroke-linecap:butt;stroke-linejoin:miter;stroke-miterlimit:4;stroke-dasharray:none;stroke-opacity:1" />
    <path
       id="path4246"
       d="m 1172,841 61,-24"
       style="fill:none;fill-rule:evenodd;stroke:#8d7c6c;stroke-width:2;stroke-linecap:butt;stroke-linejoin:miter;stroke-miterlimit:4;stroke-dasharray:none;stroke-opacity:1" />
    <path
       id="path4248"
       d="m 1197,860 127,-61"
       style="fill:none;fill-rule:evenodd;stroke:#8d7c6c;stroke-width:2;stroke-linecap:butt;stroke-linejoin:miter;stroke-miterlimit:4;stroke-dasharray:none;stroke-opacity:1" />
    <path
       id="path4250"
       d="m 1348,873 c 193.9473,-95.15437 290.1885,-167.51064 627,-296"
       style="fill:none;fill-rule:evenodd;stroke:#8d7c6c;stroke-width:2;stroke-linecap:butt;stroke-linejoin:miter;stroke-miterlimit:4;stroke-dasharray:none;stroke-opacity:1" />
    <path
       id="path4252"
       d="m 1671,737 c 107.3715,-57.44792 205.4439,-86.99851 308,-130"
       style="fill:none;fill-rule:evenodd;stroke:#8d7c6c;stroke-width:3;stroke-linecap:butt;stroke-linejoin:miter;stroke-miterlimit:4;stroke-dasharray:none;stroke-opacity:1" />
    <path
       id="path4254"
       d="m 1798,830 c 83.8576,-43.7929 176.4486,-73.03005 268,-104"
       style="fill:none;fill-rule:evenodd;stroke:#8d7c6c;stroke-width:3;stroke-linecap:butt;stroke-linejoin:miter;stroke-miterlimit:4;stroke-dasharray:none;stroke-opacity:1" />
    <path
       id="path4256"
       d="m 1842,839 c 71.7972,-34.66202 133.7153,-52.85885 198,-75"
       style="fill:none;fill-rule:evenodd;stroke:#8d7c6c;stroke-width:2;stroke-linecap:butt;stroke-linejoin:miter;stroke-miterlimit:4;stroke-dasharray:none;stroke-opacity:1" />
    <path
       id="path4258"
       d="m 1637,829 23,-12"
       style="fill:none;fill-rule:evenodd;stroke:#8d7c6c;stroke-width:1px;stroke-linecap:butt;stroke-linejoin:miter;stroke-opacity:1" />
    <path
       id="path4260"
       d="m 1656,859 18,-10"
       style="fill:none;fill-rule:evenodd;stroke:#8d7c6c;stroke-width:1px;stroke-linecap:butt;stroke-linejoin:miter;stroke-opacity:1" />
    <path
       id="path4262"
       d="m 1669,868 12,-6"
       style="fill:none;fill-rule:evenodd;stroke:#8d7c6c;stroke-width:1px;stroke-linecap:butt;stroke-linejoin:miter;stroke-opacity:1" />
    <path
       id="path4264"
       d="m 1534,1091 c 144.5484,-90.5304 296.6131,-168.53377 449,-246"
       style="fill:none;fill-rule:evenodd;stroke:#8d7c6c;stroke-width:3;stroke-linecap:butt;stroke-linejoin:miter;stroke-miterlimit:4;stroke-dasharray:none;stroke-opacity:1" />
    <path
       id="path4266"
       d="m 1754,1105 c 42.0141,-26.1305 98.0974,-49.4472 153,-73"
       style="fill:none;fill-rule:evenodd;stroke:#8d7c6c;stroke-width:2;stroke-linecap:butt;stroke-linejoin:miter;stroke-miterlimit:4;stroke-dasharray:none;stroke-opacity:1" />
    <path
       id="path4268"
       d="m 248,878 -36,21"
       style="fill:none;fill-rule:evenodd;stroke:#8d7c6c;stroke-width:2;stroke-linecap:butt;stroke-linejoin:miter;stroke-miterlimit:4;stroke-dasharray:none;stroke-opacity:1" />
    <path
       id="path4270"
       d="m 273,913 c -7.65074,2.20109 -11.81933,5.98379 -17,8"
       style="fill:none;fill-rule:evenodd;stroke:#8d7c6c;stroke-width:1px;stroke-linecap:butt;stroke-linejoin:miter;stroke-opacity:1" />
    <path
       id="path4272"
       d="m 292,976 c 7,-2 407,-209 407,-209"
       style="fill:none;fill-rule:evenodd;stroke:#8d7c6c;stroke-width:3;stroke-linecap:butt;stroke-linejoin:miter;stroke-miterlimit:4;stroke-dasharray:none;stroke-opacity:1" />
    <path
       id="path4274"
       d="M 329,999 C 398.7282,960.78973 467.48478,920.63622 541,890"
       style="fill:none;fill-rule:evenodd;stroke:#8d7c6c;stroke-width:2;stroke-linecap:butt;stroke-linejoin:miter;stroke-miterlimit:4;stroke-dasharray:none;stroke-opacity:1" />
    <path
       id="path4276"
       d="m 388,982 c -23.30213,12.66667 -43.67687,25.3333 -63,38"
       style="fill:none;fill-rule:evenodd;stroke:#8d7c6c;stroke-width:2;stroke-linecap:butt;stroke-linejoin:miter;stroke-miterlimit:4;stroke-dasharray:none;stroke-opacity:1" />
    <path
       id="path4278"
       d="m 290,915 -15,11"
       style="fill:none;fill-rule:evenodd;stroke:#8d7c6c;stroke-width:2;stroke-linecap:butt;stroke-linejoin:miter;stroke-miterlimit:4;stroke-dasharray:none;stroke-opacity:1" />
  </g>
  <g
     style="display:inline"
     id="layer12">
    <path
       id="path4186-8"
       d="m 1361.9996,1085.9999 c 150.8323,-176.28635 240.9596,-411.38951 337,-548.00008 18.1834,-24.66309 38.013,-42.71527 59,-2 11.7955,21.6089 12.7669,44.72549 2,69 -115.1754,209.35583 -204.0178,367.64563 -303,489.00008"
       style="fill:#646464;fill-opacity:1;fill-rule:evenodd;stroke:none;stroke-width:5;stroke-linecap:butt;stroke-linejoin:miter;stroke-miterlimit:4;stroke-dasharray:none;stroke-opacity:1" />
    <path
       id="path4204"
       d="m 1334.6641,1094.1421 -0.7072,-38.1837 -3.5355,-30.0521 -10.253,-34.6482 -17.3242,-34.64823 -22.6274,-30.05204 -42.0728,-50.20458 -21.9203,-25.8094 -14.8493,-23.68808 -24.7487,-39.59798 -21.2132,-37.47666 -13.0815,-30.05204 -418.96076,190.91884 32.17336,98.28787 18.03122,78.1353 4.24264,24.3952 556.84664,-8.1318 z"
       style="fill:#646464;fill-opacity:1;fill-rule:evenodd;stroke:none;stroke-width:1px;stroke-linecap:butt;stroke-linejoin:miter;stroke-opacity:1" />
  </g>
  <g
     style="display:inline"
     id="layer1">
    <path
       id="path4168"
       d="m 724.5,913.5 c 25.31605,74.23403 43.26089,135.9711 53.5,200.5"
       style="fill:none;fill-rule:evenodd;stroke:#000000;stroke-width:5;stroke-linecap:butt;stroke-linejoin:miter;stroke-miterlimit:4;stroke-dasharray:none;stroke-opacity:1" />
    <path
       id="path4170"
       d="m 895.59294,888.07943 c 2.7696,33.72137 1.11275,158.81787 -12.05192,229.96547 l 4.91796,0.9102 c 6.41475,-31.2789 19.90974,-199.49956 7.13396,-230.87567 z"
       style="color:#000000;font-style:normal;font-variant:normal;font-weight:normal;font-stretch:normal;font-size:medium;line-height:normal;font-family:sans-serif;text-indent:0;text-align:start;text-decoration:none;text-decoration-line:none;text-decoration-style:solid;text-decoration-color:#000000;letter-spacing:normal;word-spacing:normal;text-transform:none;direction:ltr;block-progression:tb;writing-mode:lr-tb;baseline-shift:baseline;text-anchor:start;white-space:normal;clip-rule:nonzero;display:inline;overflow:visible;visibility:visible;opacity:1;isolation:auto;mix-blend-mode:normal;color-interpolation:sRGB;color-interpolation-filters:linearRGB;solid-color:#000000;solid-opacity:1;fill:#000000;fill-opacity:1;fill-rule:evenodd;stroke:none;stroke-width:5;stroke-linecap:butt;stroke-linejoin:miter;stroke-miterlimit:4;stroke-dasharray:none;stroke-dashoffset:0;stroke-opacity:1;color-rendering:auto;image-rendering:auto;shape-rendering:auto;text-rendering:auto;enable-background:accumulate" />
    <path
       id="path4172"
       d="m 1041.3848,1009.2832 c -3.4835,40.1324 -17.039,78.9624 -29.7266,112.8398 l 4.6836,1.754 c 4.8247,-16.0295 29.8913,-76.7793 25.043,-114.5938 z"
       style="color:#000000;font-style:normal;font-variant:normal;font-weight:normal;font-stretch:normal;font-size:medium;line-height:normal;font-family:sans-serif;text-indent:0;text-align:start;text-decoration:none;text-decoration-line:none;text-decoration-style:solid;text-decoration-color:#000000;letter-spacing:normal;word-spacing:normal;text-transform:none;direction:ltr;block-progression:tb;writing-mode:lr-tb;baseline-shift:baseline;text-anchor:start;white-space:normal;clip-rule:nonzero;display:inline;overflow:visible;visibility:visible;opacity:1;isolation:auto;mix-blend-mode:normal;color-interpolation:sRGB;color-interpolation-filters:linearRGB;solid-color:#000000;solid-opacity:1;fill:#000000;fill-opacity:1;fill-rule:evenodd;stroke:none;stroke-width:5;stroke-linecap:butt;stroke-linejoin:miter;stroke-miterlimit:4;stroke-dasharray:none;stroke-dashoffset:0;stroke-opacity:1;color-rendering:auto;image-rendering:auto;shape-rendering:auto;text-rendering:auto;enable-background:accumulate" />
    <path
       id="path4180"
       d="m 808.55273,957.07227 c 20.40176,46.50343 69.1899,88.87963 83.4336,99.91793 l 3.02734,-3.9804 c -39.72271,-30.2344 -63.451,-62.88037 -86.46094,-95.93753 z"
       style="color:#000000;font-style:normal;font-variant:normal;font-weight:normal;font-stretch:normal;font-size:medium;line-height:normal;font-family:sans-serif;text-indent:0;text-align:start;text-decoration:none;text-decoration-line:none;text-decoration-style:solid;text-decoration-color:#000000;letter-spacing:normal;word-spacing:normal;text-transform:none;direction:ltr;block-progression:tb;writing-mode:lr-tb;baseline-shift:baseline;text-anchor:start;white-space:normal;clip-rule:nonzero;display:inline;overflow:visible;visibility:visible;opacity:1;isolation:auto;mix-blend-mode:normal;color-interpolation:sRGB;color-interpolation-filters:linearRGB;solid-color:#000000;solid-opacity:1;fill:#000000;fill-opacity:1;fill-rule:evenodd;stroke:none;stroke-width:5;stroke-linecap:butt;stroke-linejoin:miter;stroke-miterlimit:4;stroke-dasharray:none;stroke-dashoffset:0;stroke-opacity:1;color-rendering:auto;image-rendering:auto;shape-rendering:auto;text-rendering:auto;enable-background:accumulate" />
    <path
       id="path4184"
       d="m 1142,719 c 95.8062,218.55586 202.1503,201.05008 192,386"
       style="fill:none;fill-rule:evenodd;stroke:#000000;stroke-width:5;stroke-linecap:butt;stroke-linejoin:miter;stroke-miterlimit:4;stroke-dasharray:none;stroke-opacity:1" />
    <path
       id="path4186"
       d="m 1362,1086 c 150.8323,-176.28626 240.9596,-411.38943 337,-548 18.1834,-24.66309 38.013,-42.71527 59,-2 11.7955,21.6089 12.7669,44.72549 2,69 -115.1754,209.35583 -204.0178,367.64561 -303,489"
       style="fill:none;fill-rule:evenodd;stroke:#000000;stroke-width:5;stroke-linecap:butt;stroke-linejoin:miter;stroke-miterlimit:4;stroke-dasharray:none;stroke-opacity:1" />
  </g>
  <g
     style="display:inline"
     id="layer10">
    <path
       id="path4837"
       d="m 690.13622,635.58339 -2.82843,36.76955 3.53553,32.52691 -6.36396,37.47666 -2.12132,33.94113 2.12132,26.87006 9.8995,37.1231 18.03122,47.0226 37.47666,73.18555 7.07107,1.76777 13.43503,-8.48528 64.34671,-54.44722 95.81297,-76.72109 31.46625,-20.85965 40.65863,-16.61701 38.5373,-13.43503 54.8008,-19.79899 32.1734,-18.38477 8.4852,-6.36396 7.0711,-9.54594 2.8284,-11.66727 0.7071,-25.45584 -1.4142,-15.2028 26.163,-3.88908 35.7089,-3.88909 24.0416,-1.06066 31.4663,-4.59619 39.9515,-11.66727 20.1525,-9.19238 24.0417,-18.38478 38.8908,-38.89087 72.4785,-83.79216 71.0642,-102.88403 39.2444,-67.88225 22.6275,-50.91169 -1.0607,-8.48528 -9.8995,-1.41422 -49.1439,9.54594 -123.7437,18.73833 -80.6102,19.79899 -56.9221,22.98097 -43.1335,23.33453 10.2531,-34.29468 29.6984,-81.67083 35.7089,-104.65181 8.4853,-38.183763 -0.7071,-16.263456 -60.1041,25.455849 -33.9411,18.38477 -26.87,14.49569 z"
       style="fill:#ea7774;fill-opacity:1;fill-rule:evenodd;stroke:none;stroke-width:1px;stroke-linecap:butt;stroke-linejoin:miter;stroke-opacity:1" />
  </g>
  <g
     id="layer11">
    <path
       id="path4840"
       d="m 982.52487,683.84343 c 1.92028,17.47762 -13.47491,28.35887 -20.5061,42.4264 l 51.08843,-45.07805 z"
       style="fill:#aa5050;fill-rule:evenodd;stroke:none;stroke-width:1px;stroke-linecap:butt;stroke-linejoin:miter;stroke-opacity:1;fill-opacity:1" />
    <path
       id="path4842"
       d="m 722.66313,648.66486 c 35.25329,20.9775 24.29123,41.2479 156.27059,62.2254 l 36.06245,-24.04163 z"
       style="fill:#aa5050;fill-rule:evenodd;stroke:none;stroke-width:1px;stroke-linecap:butt;stroke-linejoin:miter;stroke-opacity:1;fill-opacity:1" />
    <path
       id="path4844"
       d="m 1223.6483,465.52421 c 14.1626,-4.81146 98.8343,-51.22395 95.1058,-6.18719 l 17.6777,-25.98617 3.0052,-8.48528 -2.8284,-6.01041 -7.955,-0.88388 -11.4904,1.94454 -31.6431,9.19239 -30.052,13.96536 z"
       style="fill:#aa5050;fill-rule:evenodd;stroke:none;stroke-width:1px;stroke-linecap:butt;stroke-linejoin:miter;stroke-opacity:1;fill-opacity:1" />
  </g>
  <g
     style="display:inline"
     id="layer9">
    <path
       id="path4789"
       d="m 1310.4297,74.636719 c -90.8321,35.029951 -130.5359,64.546511 -162.6875,93.093751 l 3.3203,3.73828 c 31.4882,-27.9582 69.9552,-56.56566 157.8535,-90.824219 0.393,10.086798 -2.1717,25.236179 -7.1172,43.800779 -5.4806,20.5736 -13.5938,45.10006 -22.7695,71.2168 -18.3514,52.23347 -40.9471,110.82177 -55.2949,157.40234 l 4.7773,1.47266 c 14.2601,-46.29578 36.8472,-104.87778 55.2363,-157.21875 9.1946,-26.17049 17.3408,-50.78193 22.8829,-71.58594 5.542,-20.80401 8.561,-37.684647 7.1796,-49.064451 -0.098,-1.696345 -1.7349,-2.594972 -3.3808,-2.03125 z"
       style="color:#000000;font-style:normal;font-variant:normal;font-weight:normal;font-stretch:normal;font-size:medium;line-height:normal;font-family:sans-serif;text-indent:0;text-align:start;text-decoration:none;text-decoration-line:none;text-decoration-style:solid;text-decoration-color:#000000;letter-spacing:normal;word-spacing:normal;text-transform:none;direction:ltr;block-progression:tb;writing-mode:lr-tb;baseline-shift:baseline;text-anchor:start;white-space:normal;clip-rule:nonzero;display:inline;overflow:visible;visibility:visible;opacity:1;isolation:auto;mix-blend-mode:normal;color-interpolation:sRGB;color-interpolation-filters:linearRGB;solid-color:#000000;solid-opacity:1;fill:#000000;fill-opacity:1;fill-rule:evenodd;stroke:none;stroke-width:5;stroke-linecap:butt;stroke-linejoin:miter;stroke-miterlimit:4;stroke-dasharray:none;stroke-dashoffset:0;stroke-opacity:1;color-rendering:auto;image-rendering:auto;shape-rendering:auto;text-rendering:auto;enable-background:accumulate" />
    <path
       id="path4793"
       d="m 1227.8203,199.125 c -17.0675,60.62813 -27.5241,84.10285 -39.4297,120.66797 l 4.7539,1.54883 c 6.4619,-25.18939 35.8548,-101.07482 34.6758,-122.2168 z"
       style="color:#000000;font-style:normal;font-variant:normal;font-weight:normal;font-stretch:normal;font-size:medium;line-height:normal;font-family:sans-serif;text-indent:0;text-align:start;text-decoration:none;text-decoration-line:none;text-decoration-style:solid;text-decoration-color:#000000;letter-spacing:normal;word-spacing:normal;text-transform:none;direction:ltr;block-progression:tb;writing-mode:lr-tb;baseline-shift:baseline;text-anchor:start;white-space:normal;clip-rule:nonzero;display:inline;overflow:visible;visibility:visible;opacity:1;isolation:auto;mix-blend-mode:normal;color-interpolation:sRGB;color-interpolation-filters:linearRGB;solid-color:#000000;solid-opacity:1;fill:#000000;fill-opacity:1;fill-rule:evenodd;stroke:none;stroke-width:5;stroke-linecap:butt;stroke-linejoin:miter;stroke-miterlimit:4;stroke-dasharray:none;stroke-dashoffset:0;stroke-opacity:1;color-rendering:auto;image-rendering:auto;shape-rendering:auto;text-rendering:auto;enable-background:accumulate" />
    <path
       id="path4797"
       d="m 1198.8651,371.05301 c 130.5487,-91.36005 255.607,-85.72445 382.5,-112.5 5.3656,-0.085 11.1031,-0.76491 10,9.5 -44.3318,118.06879 -181.042,293.80845 -257.1517,354.87923 -45.1583,36.23522 -127.2286,33.21568 -189.8483,42.62077"
       style="display:inline;fill:none;fill-rule:evenodd;stroke:#000000;stroke-width:5;stroke-linecap:butt;stroke-linejoin:miter;stroke-miterlimit:4;stroke-dasharray:none;stroke-opacity:1" />
    <path
       id="path4814"
       d="m 1436.7539,383.36133 c -0.484,7.85058 -2.2091,15.62753 -8.9824,24.67578 -108.643,103.10245 -184.3298,145.69854 -250.5703,170.85937 l 1.5976,4.20704 c 112.2612,-43.01351 185.7999,-109.56777 252.3867,-172.10157 6.6515,-7.58809 8.5451,-18.11289 5.5684,-27.64062 z"
       style="color:#000000;font-style:normal;font-variant:normal;font-weight:normal;font-stretch:normal;font-size:medium;line-height:normal;font-family:sans-serif;text-indent:0;text-align:start;text-decoration:none;text-decoration-line:none;text-decoration-style:solid;text-decoration-color:#000000;letter-spacing:normal;word-spacing:normal;text-transform:none;direction:ltr;block-progression:tb;writing-mode:lr-tb;baseline-shift:baseline;text-anchor:start;white-space:normal;clip-rule:nonzero;display:inline;overflow:visible;visibility:visible;opacity:1;isolation:auto;mix-blend-mode:normal;color-interpolation:sRGB;color-interpolation-filters:linearRGB;solid-color:#000000;solid-opacity:1;fill:#000000;fill-opacity:1;fill-rule:evenodd;stroke:none;stroke-width:4.5;stroke-linecap:butt;stroke-linejoin:miter;stroke-miterlimit:4;stroke-dasharray:none;stroke-dashoffset:0;stroke-opacity:1;color-rendering:auto;image-rendering:auto;shape-rendering:auto;text-rendering:auto;enable-background:accumulate" />
    <path
       id="path4818"
       d="m 1326.1664,416.73889 c -75.0182,15.44835 -98.0852,44.61277 -134.5726,70.27869 l 2.5898,3.68164 c 37.0438,-26.05729 59.0302,-55.3448 132.793,-70.61914 2.1087,-0.33418 8.7357,0.22769 10.4798,3.26287 0.6493,1.5541 -0.7613,5.02234 -2.0072,8.30939 -29.7048,45.85879 -67.5467,88.70229 -112.2187,127.63477 l 2.957,3.39258 c 45.4013,-40.19121 84.4469,-86.28259 112.6972,-129.49174 1.3601,-3.53137 3.0189,-6.7032 1.4424,-10.47648 -0.7882,-1.88664 -1.8736,-3.93223 -4.1396,-5.02397 -3.5659,-1.43327 -7.4504,-1.37707 -10.0211,-0.94861 z"
       style="color:#000000;font-style:normal;font-variant:normal;font-weight:normal;font-stretch:normal;font-size:medium;line-height:normal;font-family:sans-serif;text-indent:0;text-align:start;text-decoration:none;text-decoration-line:none;text-decoration-style:solid;text-decoration-color:#000000;letter-spacing:normal;word-spacing:normal;text-transform:none;direction:ltr;block-progression:tb;writing-mode:lr-tb;baseline-shift:baseline;text-anchor:start;white-space:normal;clip-rule:nonzero;display:inline;overflow:visible;visibility:visible;opacity:1;isolation:auto;mix-blend-mode:normal;color-interpolation:sRGB;color-interpolation-filters:linearRGB;solid-color:#000000;solid-opacity:1;fill:#000000;fill-opacity:1;fill-rule:evenodd;stroke:none;stroke-width:4.5;stroke-linecap:butt;stroke-linejoin:miter;stroke-miterlimit:4;stroke-dasharray:none;stroke-dashoffset:0;stroke-opacity:1;color-rendering:auto;image-rendering:auto;shape-rendering:auto;text-rendering:auto;enable-background:accumulate" />
    <path
       id="path4822"
       d="m 1139.8561,643.00801 c 5.9846,19.95175 9.302,41.58805 6.364,67.17514 -2.7697,10.54012 -7.4458,16.7132 -15.91,21.38998 -47.9496,31.08519 -105.0732,43.82271 -158.03828,64.87705 -49.64508,23.79164 -139.53574,107.95163 -209.30361,161.92745 -5.72857,3.36102 -11.45529,6.69627 -16.26345,-2.82842 C 651.86614,783.00931 689.94239,760.614 689.42911,694.62681"
       style="fill:none;fill-rule:evenodd;stroke:#000000;stroke-width:5;stroke-linecap:butt;stroke-linejoin:miter;stroke-miterlimit:4;stroke-dasharray:none;stroke-opacity:1" />
    <path
       id="path4824"
       d="m 690.84332,633.81562 c -17.16894,86.69128 33.60329,158.28593 76.36753,235.46656"
       style="fill:none;fill-rule:evenodd;stroke:#000000;stroke-width:5;stroke-linecap:butt;stroke-linejoin:miter;stroke-miterlimit:4;stroke-dasharray:none;stroke-opacity:1" />
    <path
       id="path4826"
       d="M 1014.4629,678.16016 C 931.33514,749.96925 774.35905,865.2313 752.05078,878.89258 776.09632,877.11267 939.5108,747.29616 1017.541,682.10156 Z"
       style="color:#000000;font-style:normal;font-variant:normal;font-weight:normal;font-stretch:normal;font-size:medium;line-height:normal;font-family:sans-serif;text-indent:0;text-align:start;text-decoration:none;text-decoration-line:none;text-decoration-style:solid;text-decoration-color:#000000;letter-spacing:normal;word-spacing:normal;text-transform:none;direction:ltr;block-progression:tb;writing-mode:lr-tb;baseline-shift:baseline;text-anchor:start;white-space:normal;clip-rule:nonzero;display:inline;overflow:visible;visibility:visible;opacity:1;isolation:auto;mix-blend-mode:normal;color-interpolation:sRGB;color-interpolation-filters:linearRGB;solid-color:#000000;solid-opacity:1;fill:#000000;fill-opacity:1;fill-rule:evenodd;stroke:none;stroke-width:5;stroke-linecap:butt;stroke-linejoin:miter;stroke-miterlimit:4;stroke-dasharray:none;stroke-dashoffset:0;stroke-opacity:1;color-rendering:auto;image-rendering:auto;shape-rendering:auto;text-rendering:auto;enable-background:accumulate" />
    <path
       id="path4830"
       d="m 916.58789,683.6875 c -11.25553,7.70286 -37.02584,25.74691 -64.88281,40.60352 -17.97769,10.65107 -62.046,25.33492 -77.5625,26.38476 21.37473,5.35262 51.70406,-6.92973 79.91406,-21.97461 28.21,-15.04488 54.16924,-33.23324 65.35547,-40.88867 z"
       style="color:#000000;font-style:normal;font-variant:normal;font-weight:normal;font-stretch:normal;font-size:medium;line-height:normal;font-family:sans-serif;text-indent:0;text-align:start;text-decoration:none;text-decoration-line:none;text-decoration-style:solid;text-decoration-color:#000000;letter-spacing:normal;word-spacing:normal;text-transform:none;direction:ltr;block-progression:tb;writing-mode:lr-tb;baseline-shift:baseline;text-anchor:start;white-space:normal;clip-rule:nonzero;display:inline;overflow:visible;visibility:visible;opacity:1;isolation:auto;mix-blend-mode:normal;color-interpolation:sRGB;color-interpolation-filters:linearRGB;solid-color:#000000;solid-opacity:1;fill:#000000;fill-opacity:1;fill-rule:evenodd;stroke:none;stroke-width:5;stroke-linecap:butt;stroke-linejoin:miter;stroke-miterlimit:4;stroke-dasharray:none;stroke-dashoffset:0;stroke-opacity:1;color-rendering:auto;image-rendering:auto;shape-rendering:auto;text-rendering:auto;enable-background:accumulate" />
    <path
       id="path4834"
       d="m 752.25,659.25 c 9.29192,37.85279 29.18689,63.98641 51,88"
       style="fill:none;fill-rule:evenodd;stroke:#000000;stroke-width:5;stroke-linecap:butt;stroke-linejoin:miter;stroke-miterlimit:4;stroke-dasharray:none;stroke-opacity:1" />
  </g>
  <g
     style="display:inline"
     id="layer4">
    <path
       id="path4712-5"
       d="m 809.28758,10.118291 c -75.1684,97.520749 -130.5878,246.671019 -202.0305,359.614299 -109.4898,52.243 -105.9583,55.61188 -120.2082,66.67007 24.22256,162.56966 429.17351,356.82144 684.88352,184.85792 36.8711,-160.31976 37.9702,-372.29138 10.1015,-556.594049 -60.9735,47.903069 -97.949,115.804509 -144.4518,175.766539 L 855.75458,205.07773 c -14.6361,-64.98648 -17.504,-129.972959 -46.467,-194.959439 z"
       style="fill:#646464;fill-opacity:1;fill-rule:evenodd;stroke:none;stroke-width:5;stroke-linecap:butt;stroke-linejoin:miter;stroke-miterlimit:4;stroke-dasharray:none;stroke-opacity:1" />
  </g>
  <g
     id="layer3">
    <path
       id="path4712"
       d="M 807.15234,9.7324219 C 731.72455,107.58978 676.39775,256.41525 605.35156,368.94336 c -54.25458,25.89924 -80.69583,39.76452 -95.35547,48.56445 -14.72849,8.84127 -17.68596,12.66817 -24.63476,18.06055 -0.95598,0.65452 -1.12817,1.32073 -0.93945,2.35547 5.65964,36.72775 32.46372,77.52226 74.04492,115.58008 41.5812,38.05781 98.03539,73.34963 163.40429,98.625 130.7378,50.55073 338.69641,57.71239 451.15231,-27.56055 0,0 0.8522,-0.68138 1.1895,-1.60742 36.9765,-160.77828 38.0492,-372.93487 10.1367,-557.527346 -0.6954,-3.102233 -2.4863,-2.866116 -4.0156,-1.591797 -61.0772,47.984503 -98.066,115.521913 -143.9688,174.978513 L 857.71289,204.08203 C 843.44599,139.89557 840.36811,75.202072 811.41602,10.240234 810.56588,8.340876 808.19723,8.3317642 807.15234,9.7324219 Z m 1.38672,6.5527341 c 27.10657,63.151439 30.22647,126.568264 44.6211,190.482424 l 0.35937,1.59375 184.93947,35.95898 0.9433,-1.21484 c 45.7735,-59.02163 82.2004,-125.19065 140.6211,-172.525392 27.0908,182.585032 25.7829,391.714842 -10.457,550.187502 -108.1638,83.31019 -316.54228,76.71151 -445.89257,26.69726 -64.81131,-25.05977 -120.77654,-60.07357 -161.83008,-97.64843 -40.53897,-37.10389 -66.35627,-76.71301 -72.17969,-111.31836 6.28539,-5.04261 9.41734,-8.60596 22.90625,-16.70313 14.44065,-8.66847 40.8908,-22.55801 95.60742,-48.66601 0.53062,-0.25071 0.73909,-0.45032 1.03711,-0.91993 C 680.04216,260.2386 735.07158,113.35816 808.53906,16.285156 Z"
       style="color:#000000;font-style:normal;font-variant:normal;font-weight:normal;font-stretch:normal;font-size:medium;line-height:normal;font-family:sans-serif;text-indent:0;text-align:start;text-decoration:none;text-decoration-line:none;text-decoration-style:solid;text-decoration-color:#000000;letter-spacing:normal;word-spacing:normal;text-transform:none;direction:ltr;block-progression:tb;writing-mode:lr-tb;baseline-shift:baseline;text-anchor:start;white-space:normal;clip-rule:nonzero;display:inline;overflow:visible;visibility:visible;opacity:1;isolation:auto;mix-blend-mode:normal;color-interpolation:sRGB;color-interpolation-filters:linearRGB;solid-color:#000000;solid-opacity:1;fill:#000000;fill-opacity:1;fill-rule:evenodd;stroke:none;stroke-width:5;stroke-linecap:butt;stroke-linejoin:miter;stroke-miterlimit:4;stroke-dasharray:none;stroke-dashoffset:0;stroke-opacity:1;color-rendering:auto;image-rendering:auto;shape-rendering:auto;text-rendering:auto;enable-background:accumulate" />
  </g>
  <g
     style="display:inline"
     id="layer6">
    <path
       id="path4739-4"
       d="m 654.57934,331.98168 c -82.23345,147.95098 121.52335,247.96783 159.60405,98.48987 z"
       style="fill:#ffffff;fill-opacity:1;fill-rule:evenodd;stroke:none;stroke-width:5;stroke-linecap:butt;stroke-linejoin:miter;stroke-miterlimit:4;stroke-dasharray:none;stroke-opacity:1" />
    <path
       id="path4759-0"
       d="m 892.50069,452.50006 c -10.59763,207.36312 230.36431,122.29082 213.00001,16.5 -56.3862,-10.65781 -134.44215,-13.66748 -213.00001,-16.5 z"
       style="fill:#ffffff;fill-opacity:1;fill-rule:evenodd;stroke:none;stroke-width:5;stroke-linecap:butt;stroke-linejoin:miter;stroke-miterlimit:4;stroke-dasharray:none;stroke-opacity:1" />
  </g>
  <g
     id="layer7">
    <ellipse
       transform="matrix(0.97854905,0.20601399,-0.18815857,0.98213866,0,0)"
       ry="38.495949"
       rx="25.306446"
       cy="265.70535"
       cx="1060.7539"
       id="path4779"
       style="fill:#000000;fill-opacity:1;stroke:none;stroke-width:5;stroke-miterlimit:4;stroke-dasharray:none;stroke-opacity:1" />
    <ellipse
       transform="matrix(0.94645289,0.32284196,-0.32284196,0.94645289,0,0)"
       ry="42.072853"
       rx="24.04163"
       cy="150.64804"
       cx="860.13641"
       id="path4782"
       style="fill:#000000;fill-opacity:1;stroke:none;stroke-width:5;stroke-miterlimit:4;stroke-dasharray:none;stroke-opacity:1" />
  </g>
  <g
     style="display:inline"
     id="layer8">
    <path
       id="path4784"
       d="m 749.17963,389.86378 47.0226,30.05204 18.38478,-39.95153 -46.31549,-24.04163 z"
       style="fill:#646464;fill-rule:evenodd;stroke:#646464;stroke-width:1px;stroke-linecap:butt;stroke-linejoin:miter;stroke-opacity:1;fill-opacity:1" />
    <path
       id="path4786"
       d="m 961.66522,455.27116 60.10408,3.18198 0.3535,-24.39518 -60.81113,-4.94975 z"
       style="fill:#646464;fill-rule:evenodd;stroke:none;stroke-width:1px;stroke-linecap:butt;stroke-linejoin:miter;stroke-opacity:1;fill-opacity:1" />
  </g>
  <g
     id="layer5">
    <path
       id="path4739"
       d="m 653.66406,328.48047 -1.26953,2.28711 c -41.6589,74.95095 -10.87601,138.76107 35.66992,164.18945 23.27297,12.71419 50.52136,15.96097 74.48438,6.31055 23.96301,-9.65042 44.38832,-32.22677 54.05664,-70.17774 l 0.45312,-1.78125 -163.39453,-100.82812 z m 1.92188,7.06055 155.64648,96.04882 c -9.53956,35.66201 -28.54054,56.17702 -50.55078,65.04102 -22.3818,9.01363 -48.07355,6.03665 -70.2207,-6.0625 -43.81473,-23.9363 -73.50556,-83.0951 -34.875,-155.02734 z"
       style="color:#000000;font-style:normal;font-variant:normal;font-weight:normal;font-stretch:normal;font-size:medium;line-height:normal;font-family:sans-serif;text-indent:0;text-align:start;text-decoration:none;text-decoration-line:none;text-decoration-style:solid;text-decoration-color:#000000;letter-spacing:normal;word-spacing:normal;text-transform:none;direction:ltr;block-progression:tb;writing-mode:lr-tb;baseline-shift:baseline;text-anchor:start;white-space:normal;clip-rule:nonzero;display:inline;overflow:visible;visibility:visible;opacity:1;isolation:auto;mix-blend-mode:normal;color-interpolation:sRGB;color-interpolation-filters:linearRGB;solid-color:#000000;solid-opacity:1;fill:#000000;fill-opacity:1;fill-rule:evenodd;stroke:none;stroke-width:5;stroke-linecap:butt;stroke-linejoin:miter;stroke-miterlimit:4;stroke-dasharray:none;stroke-dashoffset:0;stroke-opacity:1;color-rendering:auto;image-rendering:auto;shape-rendering:auto;text-rendering:auto;enable-background:accumulate" />
    <path
       id="path4759"
       d="m 890.00391,452.37305 c -2.67361,52.31436 10.54882,86.73431 32.03906,106.88672 21.49024,20.1524 50.93703,25.76451 79.86723,21.39453 28.9301,-4.36999 57.5004,-18.64216 77.8945,-38.65821 20.3941,-20.01604 32.6615,-45.98789 28.1621,-73.40039 0,0 -0.3679,-1.74263 -2.002,-2.05273 -56.7155,-10.72006 -134.81296,-13.70835 -213.37496,-16.54102 -1.33911,0.12744 -2.46074,0.59391 -2.58593,2.3711 z m 4.95507,2.72461 c 76.86115,2.77692 152.92562,5.83982 208.23242,16.05468 3.3921,24.8426 -7.7677,48.50891 -26.8887,67.27539 -19.5713,19.20859 -47.3236,33.08166 -75.1386,37.28321 -27.81512,4.20155 -55.5343,-1.18621 -75.70121,-20.09766 -19.82838,-18.594 -32.57409,-50.62531 -30.50391,-100.51562 z"
       style="color:#000000;font-style:normal;font-variant:normal;font-weight:normal;font-stretch:normal;font-size:medium;line-height:normal;font-family:sans-serif;text-indent:0;text-align:start;text-decoration:none;text-decoration-line:none;text-decoration-style:solid;text-decoration-color:#000000;letter-spacing:normal;word-spacing:normal;text-transform:none;direction:ltr;block-progression:tb;writing-mode:lr-tb;baseline-shift:baseline;text-anchor:start;white-space:normal;clip-rule:nonzero;display:inline;overflow:visible;visibility:visible;opacity:1;isolation:auto;mix-blend-mode:normal;color-interpolation:sRGB;color-interpolation-filters:linearRGB;solid-color:#000000;solid-opacity:1;fill:#000000;fill-opacity:1;fill-rule:evenodd;stroke:none;stroke-width:5;stroke-linecap:butt;stroke-linejoin:miter;stroke-miterlimit:4;stroke-dasharray:none;stroke-dashoffset:0;stroke-opacity:1;color-rendering:auto;image-rendering:auto;shape-rendering:auto;text-rendering:auto;enable-background:accumulate" />
  </g>
</svg>
